HIERARCHY
ROOT Hips
{
	OFFSET -0.001795 -0.223333 0.028219
	CHANNELS 6 Xposition Yposition Zposition Zrotation Yrotation Xrotation 
	JOINT LeftUpLeg
	{
		OFFSET 0.069520 -0.091406 -0.006815
		CHANNELS 3 Zrotation Yrotation Xrotation
		JOINT LeftLeg
		{
			OFFSET 0.034277 -0.375199 -0.004496
			CHANNELS 3 Zrotation Yrotation Xrotation
			JOINT LeftFoot
			{
				OFFSET -0.013596 -0.397961 -0.043693
				CHANNELS 3 Zrotation Yrotation Xrotation
				JOINT LeftToe
				{
					OFFSET 0.026358 -0.055791 0.119288
					CHANNELS 3 Zrotation Yrotation Xrotation
					End Site
					{
						OFFSET 0.000000 0.000000 0.000000
					}
				}
			}
		}
	}
	JOINT RightUpLeg
	{
		OFFSET -0.067670 -0.090522 -0.004320
		CHANNELS 3 Zrotation Yrotation Xrotation
		JOINT RightLeg
		{
			OFFSET -0.038290 -0.382569 -0.008850
			CHANNELS 3 Zrotation Yrotation Xrotation
			JOINT RightFoot
			{
				OFFSET 0.015774 -0.398415 -0.042312
				CHANNELS 3 Zrotation Yrotation Xrotation
				JOINT RightToe
				{
					OFFSET -0.025372 -0.048144 0.123348
					CHANNELS 3 Zrotation Yrotation Xrotation
					End Site
					{
						OFFSET 0.000000 0.000000 0.000000
					}
				}
			}
		}
	}
	JOINT Spine
	{
		OFFSET -0.002533 0.108963 -0.026696
		CHANNELS 3 Zrotation Yrotation Xrotation
		JOINT Spine1
		{
			OFFSET 0.005487 0.135180 0.001092
			CHANNELS 3 Zrotation Yrotation Xrotation
			JOINT Spine2
			{
				OFFSET 0.001457 0.052922 0.025425
				CHANNELS 3 Zrotation Yrotation Xrotation
				JOINT Neck
				{
					OFFSET -0.002778 0.213870 -0.042857
					CHANNELS 3 Zrotation Yrotation Xrotation
					JOINT Head
					{
						OFFSET 0.005152 0.064970 0.051349
						CHANNELS 3 Zrotation Yrotation Xrotation
						End Site
						{
							OFFSET 0.000000 0.000000 0.000000
						}
					}
				}
				JOINT LeftShoulder
				{
					OFFSET 0.078845 0.121749 -0.034090
					CHANNELS 3 Zrotation Yrotation Xrotation
					JOINT LeftArm
					{
						OFFSET 0.090977 0.030469 -0.008868
						CHANNELS 3 Zrotation Yrotation Xrotation
						JOINT LeftForeArm
						{
							OFFSET 0.259612 -0.012772 -0.027456
							CHANNELS 3 Zrotation Yrotation Xrotation
							JOINT LeftHand
							{
								OFFSET 0.249234 0.008986 -0.001171
								CHANNELS 3 Zrotation Yrotation Xrotation
								End Site
								{
									OFFSET 0.000000 0.000000 0.000000
								}
							}
						}
					}
				}
				JOINT RightShoulder
				{
					OFFSET -0.081759 0.118833 -0.038615
					CHANNELS 3 Zrotation Yrotation Xrotation
					JOINT RightArm
					{
						OFFSET -0.096012 0.032551 -0.009143
						CHANNELS 3 Zrotation Yrotation Xrotation
						JOINT RightForeArm
						{
							OFFSET -0.253742 -0.013329 -0.021401
							CHANNELS 3 Zrotation Yrotation Xrotation
							JOINT RightHand
							{
								OFFSET -0.255298 0.007772 -0.005559
								CHANNELS 3 Zrotation Yrotation Xrotation
								End Site
								{
									OFFSET 0.000000 0.000000 0.000000
								}
							}
						}
					}
				}
			}
		}
	}
}
MOTION
Frames: 12
Frame Time: 0.050000
-0.138159 0.940224 0.943346 1.557763 1.544254 2.480044 2.111010 0.176080 3.088793 -4.587365 0.452809 -4.611890 3.084186 7.716932 3.970156 0.000000 0.000000 0.000000 0.167384 0.825740 -8.207072 -2.450025 0.644090 6.336024 4.675145 9.309614 3.806401 0.000000 0.000000 0.000000 8.429405 -0.406679 2.194216 10.797005 -6.226409 6.738420 -8.621497 -1.184112 5.551875 16.629409 -10.722856 -9.803567 0.000000 0.000000 0.000000 -19.840623 -26.452828 12.562584 -24.273878 -25.166461 1.440100 32.844536 -40.362671 -10.675515 0.000000 0.000000 0.000000 24.982350 2.607423 -0.402006 49.150200 -3.153802 -6.079100 -3.435201 32.305921 0.283529 0.000000 0.000000 0.000000 
-0.138146 0.940159 0.942367 1.504322 1.203871 2.473732 2.110408 0.162508 2.867453 -4.535811 0.454919 -4.318920 3.232160 7.922361 3.735996 0.000000 0.000000 0.000000 0.098403 0.852722 -8.506388 -2.238060 0.620929 6.517589 4.861247 9.684792 3.883479 0.000000 0.000000 0.000000 8.469156 -0.424129 2.350964 11.033864 -6.379964 6.959303 -8.731586 -1.333397 5.159449 16.519384 -10.692382 -9.562077 0.000000 0.000000 0.000000 -19.913849 -26.375282 12.601349 -23.711509 -25.770130 1.479977 32.108219 -38.712075 -9.902791 0.000000 0.000000 0.000000 24.960596 2.589977 -0.515575 49.134365 -3.587016 -6.183975 -3.081981 32.832371 0.356928 0.000000 0.000000 0.000000 
-0.138043 0.939987 0.941446 1.494758 0.750072 2.466219 2.043666 0.162289 2.780979 -4.526406 0.460028 -4.241091 3.324945 8.084450 3.713912 0.000000 0.000000 0.000000 0.027148 0.872966 -8.739158 -2.241591 0.632843 6.687511 5.044563 10.058197 3.942523 0.000000 0.000000 0.000000 8.570247 -0.447475 2.539000 11.070720 -6.379595 6.977171 -8.807865 -1.372006 4.940949 16.405247 -10.617803 -9.515669 0.000000 0.000000 0.000000 -19.913302 -26.374490 12.659591 -23.368461 -26.091708 1.489144 31.849820 -38.097403 -9.622032 0.000000 0.000000 0.000000 25.117844 2.435926 -0.699920 48.962085 -3.931976 -6.259864 -2.660472 33.171812 0.457700 0.000000 0.000000 0.000000 
-0.137877 0.939861 0.940659 1.449582 0.285541 2.490065 1.969028 0.157851 2.640406 -4.454441 0.461591 -3.917797 3.466079 8.245658 3.342040 0.000000 0.000000 0.000000 -0.148314 0.889413 -8.985674 -1.959887 0.599160 6.890090 5.107595 10.282243 3.812494 0.000000 0.000000 0.000000 8.751688 -0.466638 2.656477 11.103651 -6.406789 7.175345 -8.891997 -1.433761 4.608602 16.084150 -10.358096 -9.566054 0.000000 0.000000 0.000000 -20.175238 -26.108162 12.617859 -23.409162 -26.288681 1.529613 32.050161 -37.900863 -9.615634 0.000000 0.000000 0.000000 25.275419 2.393012 -0.831660 48.678113 -4.224375 -6.280397 -2.105043 33.504392 0.591744 0.000000 0.000000 0.000000 
-0.137662 0.939594 0.939989 1.470356 -0.191121 2.459623 1.902604 0.156666 2.548420 -4.486502 0.470005 -3.748632 3.553223 8.389516 3.277848 0.000000 0.000000 0.000000 -0.248658 0.900272 -9.137518 -1.939667 0.602733 6.975837 5.131197 10.295349 3.837141 0.000000 0.000000 0.000000 8.819485 -0.482199 2.795214 10.985389 -6.320999 7.212492 -8.871309 -1.382225 4.618084 16.046984 -10.322082 -9.637148 0.000000 0.000000 0.000000 -20.354374 -25.924819 12.596422 -23.804636 -26.263054 1.563438 32.702455 -38.703370 -10.060614 0.000000 0.000000 0.000000 25.301420 2.362946 -0.909492 48.711265 -4.460553 -6.365890 -1.700659 33.973773 0.702991 0.000000 0.000000 0.000000 
-0.137468 0.939489 0.939455 1.471439 -0.611116 2.503800 1.932309 0.155449 2.520288 -4.571645 0.480866 -3.727161 3.475553 8.224153 3.243880 0.000000 0.000000 0.000000 -0.317598 0.906340 -9.226090 -1.788149 0.584391 7.066614 5.084698 10.228278 3.751137 0.000000 0.000000 0.000000 8.888336 -0.487332 2.824091 10.886334 -6.278024 7.441880 -9.015430 -1.234804 4.388845 15.806126 -10.223008 -9.323871 0.000000 0.000000 0.000000 -20.494484 -25.974312 12.643725 -24.479723 -25.790073 1.579720 33.675716 -39.934451 -10.780563 0.000000 0.000000 0.000000 25.446172 2.320678 -0.953561 48.627880 -4.936858 -6.515742 -1.166215 34.770523 0.872638 0.000000 0.000000 0.000000 
-0.137350 0.939433 0.939053 1.501119 -0.936454 2.447876 1.972122 0.149557 2.433575 -4.715741 0.498475 -3.388096 3.472232 8.140260 2.955226 0.000000 0.000000 0.000000 -0.334520 0.909841 -9.264026 -1.787710 0.595543 7.236053 5.086008 10.273943 3.671878 0.000000 0.000000 0.000000 8.963573 -0.507438 2.999776 10.799068 -6.232326 7.573746 -9.161246 -1.183533 4.322948 15.592716 -10.034536 -9.460121 0.000000 0.000000 0.000000 -20.847400 -25.811329 12.628346 -25.016244 -25.307085 1.558246 34.445145 -41.431210 -11.524463 0.000000 0.000000 0.000000 25.479381 2.154553 -1.081543 48.860383 -5.255234 -6.663242 -0.807623 35.699378 1.001281 0.000000 0.000000 0.000000 
-0.137297 0.939357 0.938661 1.587381 -1.121543 2.433884 2.046911 0.142130 2.357271 -4.896305 0.516679 -3.221294 3.341210 7.852450 2.842519 0.000000 0.000000 0.000000 -0.390906 0.915449 -9.347390 -1.783884 0.604247 7.380959 5.005272 10.176142 3.533072 0.000000 0.000000 0.000000 8.943954 -0.515500 3.089933 10.807311 -6.238699 7.652194 -9.370274 -1.094338 4.238154 15.468880 -9.965865 -9.355010 0.000000 0.000000 0.000000 -21.099438 -25.842811 12.669952 -25.659111 -24.962816 1.582220 35.046939 -42.732502 -12.179324 0.000000 0.000000 0.000000 25.207754 2.022881 -1.120125 49.222140 -5.656490 -6.870853 -0.193683 37.196173 1.250382 0.000000 0.000000 0.000000 
-0.137330 0.939147 0.938071 1.626653 -1.372458 2.459946 2.043923 0.130768 2.188175 -4.961087 0.526962 -3.009678 3.392638 7.907141 2.675317 0.000000 0.000000 0.000000 -0.400235 0.914698 -9.338940 -1.653077 0.589934 7.494867 4.918301 10.042010 3.416398 0.000000 0.000000 0.000000 8.917979 -0.516890 3.118280 10.871806 -6.302280 7.931383 -9.621521 -1.141548 4.111073 15.420685 -9.986232 -9.132761 0.000000 0.000000 0.000000 -21.612666 -25.964548 12.869472 -26.032675 -24.507109 1.539035 35.076783 -43.642878 -12.467259 0.000000 0.000000 0.000000 25.024788 2.231436 -1.014818 49.591097 -5.686348 -6.920125 0.229106 38.296780 1.418468 0.000000 0.000000 0.000000 
-0.137465 0.938967 0.937143 1.585282 -1.419978 2.386534 2.143101 0.132370 2.247113 -5.016410 0.533135 -2.936431 3.258232 7.587598 2.466957 0.000000 0.000000 0.000000 -0.456830 0.903147 -9.248682 -1.531829 0.569322 7.488721 4.645658 9.582103 3.142034 0.000000 0.000000 0.000000 8.877378 -0.534948 3.308126 10.913778 -6.325480 7.934030 -9.859256 -1.055559 4.077594 15.396004 -9.961984 -9.136227 0.000000 0.000000 0.000000 -21.872935 -26.311205 13.086045 -26.183031 -24.575245 1.582503 34.562105 -43.927168 -12.355338 0.000000 0.000000 0.000000 25.059814 2.457379 -0.838003 49.709592 -5.588702 -6.908640 0.145277 39.179179 1.440565 0.000000 0.000000 0.000000 
-0.137624 0.938904 0.935807 1.590608 -1.523853 2.425991 2.079793 0.131140 2.196109 -5.041498 0.535439 -3.064225 3.291843 7.689821 2.603926 0.000000 0.000000 0.000000 -0.461169 0.913439 -9.353702 -1.446073 0.557741 7.531942 4.540946 9.389078 3.052687 0.000000 0.000000 0.000000 8.705367 -0.540219 3.412320 10.980722 -6.372914 8.045125 -10.107888 -1.068130 4.017071 15.195661 -9.974407 -8.551266 0.000000 0.000000 0.000000 -22.122514 -26.857277 13.468535 -25.782216 -24.909040 1.604892 33.870211 -43.402281 -11.903801 0.000000 0.000000 0.000000 25.028722 2.754754 -0.653311 49.842834 -5.327675 -6.822081 0.162134 39.966711 1.479916 0.000000 0.000000 0.000000 
-0.137757 0.939025 0.934161 1.539030 -1.640959 2.376468 1.998998 0.126791 2.090968 -4.899329 0.523174 -3.225824 3.244271 7.569812 2.508298 0.000000 0.000000 0.000000 -0.229035 0.925865 -9.360486 -1.556257 0.574741 7.491293 4.357692 9.011711 2.946678 0.000000 0.000000 0.000000 8.625119 -0.557487 3.609863 10.937084 -6.367726 8.224654 -10.325144 -1.169269 3.929639 15.124986 -10.103383 -7.882523 0.000000 0.000000 0.000000 -22.575474 -27.389113 13.917850 -24.854169 -25.169914 1.543515 33.259146 -42.412517 -11.351327 0.000000 0.000000 0.000000 25.337044 3.145684 -0.468998 49.560730 -5.086448 -6.671919 0.249838 40.398317 1.516380 0.000000 0.000000 0.000000 
